PathFileType	4	(X/Y/Z)	6_1_31_p1_0-229.trc
DataRate	CameraRate	NumFrames	NumMarkers	Units	OrigDataRate	OrigDataStartFrame	OrigNumFrames
59.0	59.0	6	27	m	59.0	172	230
Frame#	Time	RHip			RKnee			RAnkle			RBigToe			RSmallToe			RHeel			LHip			LKnee			LAnkle			LBigToe			LSmallToe			LHeel			Neck			Head			Nose			RShoulder			RElbow			RWrist			RThumb			RIndex			RPinky			LShoulder			LElbow			LWrist			LThumb			LIndex			LPinky			
		X1	Y1	Z1	X2	Y2	Z2	X3	Y3	Z3	X4	Y4	Z4	X5	Y5	Z5	X6	Y6	Z6	X7	Y7	Z7	X8	Y8	Z8	X9	Y9	Z9	X10	Y10	Z10	X11	Y11	Z11	X12	Y12	Z12	X13	Y13	Z13	X14	Y14	Z14	X15	Y15	Z15	X16	Y16	Z16	X17	Y17	Z17	X18	Y18	Z18	X19	Y19	Z19	X20	Y20	Z20	X21	Y21	Z21	X22	Y22	Z22	X23	Y23	Z23	X24	Y24	Z24	X25	Y25	Z25	X26	Y26	Z26	X27	Y27	Z27	
172	2.9152542372881354	0.2610454001469742	0.4198720704824017	0.7304589622893114	0.30331599227768624	0.44745359703706594	1.1265819327951656	0.29989313077651725	0.5383796468323391	1.490121459691039	0.2744497327607981	0.35336171095379143	1.5068953788844812	0.33970409842711974	0.4171615801688414	1.5329175736089944	0.27258631121961074	0.5848339408675345	1.5621800395406722	0.0652761201678318	0.40328696819113	0.7489488594327939	0.06828122666305268	0.433088651121201	1.134901361082299	0.08795253887896733	0.5031549337632856	1.5129337430276504	0.0979971005221128	0.36678409138417395	1.538784330490223	0.05483961311436873	0.3736890399774738	1.5135872876721337	0.1002640059661843	0.585301013623805	1.573788092082739	0.10662132294532878	0.4417789068216333	0.21188223474812545	0.11645132024160158	0.36562311104547945	-0.029063222044877275	0.13537908089352121	0.3281397447375793	0.11127087710159803	0.22976715942891512	0.44286917671994896	0.23552174625250671	0.41195197922504506	0.3885581772334306	0.3472420235921594	0.36696293133283375	0.36493626667585044	0.16334897810404805	0.3086125129077977	0.42632419305583075	0.08252135727155112	0.33900478778957255	0.38980575825074576	0.03339654465399596	0.36856923846551415	0.3559113717592318	0.06825459655119928	-0.021163951272375473	0.4367370765594964	0.25497226376825943	-0.13649428217489668	0.2913181443705534	0.36670731441669263	-0.10693331251400841	0.3146534322795812	0.17627870446696345	-0.05779209038408964	0.3359267038212302	0.07587510029533741	-0.09912896469054472	0.3797726741777977	0.06863986883671304	-0.11147664760077468	0.3250423115690271	0.07028491380401818
173	2.9322033898305087	0.2653409288355855	0.4209105606127009	0.7303285330254932	0.30334246267063664	0.44750014036579044	1.1265887270774548	0.30940586691384875	0.5224074040183451	1.4844805608056517	0.27319857350937793	0.351377942123593	1.5020253261601026	0.336203912734638	0.4050950447626447	1.5262561294162522	0.2783499579337419	0.589757782357267	1.569052513806975	0.07199889860475121	0.4174159396180943	0.7526395492168385	0.06832689932247946	0.4331395709270764	1.1349421684652536	0.0873395304285756	0.5047172467955885	1.5095728894085851	0.09800016642648174	0.36653660395873405	1.538649480048732	0.05490026727851865	0.37333121280745524	1.5136631421099913	0.10154898654725447	0.5872981853081363	1.5795610517804701	0.10224971784457394	0.4396604781139782	0.21577588258694336	0.1163584915906369	0.3653566578080248	-0.029407390657238925	0.1354100273752318	0.32810430868337254	0.11136335172549598	0.23244986937980616	0.4554522463515213	0.23724919925548157	0.41352900814936794	0.3903796489981589	0.3587563415369821	0.3682525077931345	0.36414507534672025	0.17187217939842458	0.32673161033744014	0.39168160719686107	0.0923111510591391	0.3608166897799115	0.37883531604816856	0.04443424430310273	0.393275013267825	0.36194545226909547	0.08001248647665558	-0.020319682056512692	0.43774056564151187	0.2627531821778594	-0.14148054161605023	0.3008875109481578	0.37618118280521395	-0.10832314130474482	0.3024093599452698	0.18219589333159658	-0.06173477093437928	0.34663438769766736	0.08891785488658942	-0.10293909280196485	0.3796684955796487	0.07377395158370109	-0.11755728813979706	0.31206801248901217	0.07639659827387005
174	2.9491525423728815	0.26539136185379886	0.4207007103738735	0.7302662893356954	0.3021495412679829	0.4459090411774499	1.1214408770062296	0.30947565179634756	0.5222386669396002	1.4844306360637196	0.2743326897644579	0.35316513490694024	1.5069245151331476	0.3323257629257145	0.4197366934172965	1.5356889535007845	0.27839897076877296	0.5897975267454519	1.5690056048233716	0.06901217231797774	0.4042172335343246	0.7524800264122355	0.06721860892733972	0.43156359434957847	1.1294852286679837	0.08605245516669496	0.5028967952563606	1.5035384323999872	0.09798777510736287	0.36663050285135257	1.538686241660347	0.05485932536813835	0.37336973815741414	1.5135875462935175	0.10029535047400794	0.5853875914586214	1.5739401880516752	0.09956999001969624	0.4284059620278062	0.21076999422006953	0.1160786478756266	0.3659198241485381	-0.03235454167129904	0.13444030222296158	0.3279998653092153	0.10453714748793187	0.23335521540605383	0.4564096962016507	0.2409935234074063	0.4138369571445009	0.39001159308972677	0.3672074788680903	0.37763308495167164	0.3517713486401265	0.1869805900480318	0.341429585010159	0.36441299723793824	0.10497950285233167	0.37638938956021956	0.3768941596454216	0.06797611673554363	0.4165890974691563	0.3588530976593579	0.09126142524045916	-0.02019395260618669	0.43725433090842547	0.26665313412083175	-0.1409447267423267	0.30107057970313406	0.3874493158299252	-0.10717393730044784	0.3019393883793985	0.19382853021998836	-0.07481751304444799	0.3336430881670664	0.10024683896402257	-0.10749123613977195	0.3792444144360716	0.07435020058638096	-0.1303658109348092	0.2955745682993218	0.08349751055066712
175	2.9661016949152543	0.2654082881462284	0.4207171941732254	0.7302932328998488	0.30215741288736975	0.44594048320123864	1.1216911121046431	0.30647416965116947	0.5398274528243251	1.5000943949222176	0.2743895223528554	0.3531943977264476	1.5069708769493946	0.3324016129918692	0.41994222688832494	1.5358881890668825	0.27840692196409994	0.590000458142828	1.5691597175119603	0.07164040116943109	0.4168809255065367	0.7563939143147158	0.0688330911703191	0.43179125047446737	1.138284632199847	0.08792655000773701	0.5031655819779177	1.5131149885321782	0.0979636080280397	0.3666585590536354	1.5387428088306054	0.05484472695480101	0.37348964110745675	1.5136932120949513	0.0959075911436264	0.6039290841415749	1.5899343157248473	0.09952873928985899	0.428692846548933	0.21078236390950916	0.11612348993094253	0.36598613046190465	-0.032367314869476214	0.13062435884573897	0.32559297962354344	0.10461326212290921	0.22878010414174035	0.4711510246215072	0.2400725695718587	0.4144194704080959	0.3913598622336568	0.37522291888301984	0.386391607870443	0.36309661922881026	0.1994965787812394	0.3480655330410324	0.35097864059171086	0.10794741052366452	0.3966915673425047	0.3232702050418327	0.07994448434171053	0.44163716751649973	0.3361769843920228	0.0978178988416998	-0.01988425391919682	0.4366489649039903	0.27049414699863994	-0.14091109226391835	0.30098389079996907	0.3880430745132175	-0.11808803912823368	0.2996774109387306	0.2012997801595913	-0.0891144343789043	0.35451741023183025	0.11174532593919663	-0.11265296368264456	0.38972996109253044	0.08220694375489146	-0.13993592962597975	0.3038591832839119	0.09542717514946777
176	2.983050847457627	0.2654236428485661	0.42085647270683896	0.730344178623617	0.3009793735839749	0.44448829855903416	1.115930787430021	0.30884330264203663	0.5240957793220007	1.4808302976810643	0.2743180336527951	0.3532457203506872	1.507022777135317	0.33259621070860745	0.4204386103633721	1.5362876999727069	0.27844878898346	0.5899334007340771	1.5690303369973604	0.07430604650252196	0.3912622248869856	0.7475819827175387	0.06893337528703111	0.43171585021545894	1.1382439610378594	0.08797622753109272	0.5032237445335064	1.5131202160804504	0.09797815704095192	0.3665141399673128	1.538541608879849	0.05491643534691765	0.3733852377513543	1.5137031482154584	0.10023572195700105	0.6073945470438517	1.5914427767834853	0.09955242447082659	0.42879629540849035	0.21077285414579966	0.11126976669188836	0.3771855287757239	-0.03495775362027298	0.13065140014157736	0.32552001331110747	0.10459054083644595	0.2291403282888669	0.4706934389529878	0.24765049771723835	0.4072700875316398	0.4026244441085044	0.3904040570987558	0.3917084005140836	0.37343766415554613	0.21597806627946098	0.36817326034704345	0.3456028078689651	0.12060615009626434	0.416189751731407	0.3206362817530174	0.094123474512898	0.4590969176867251	0.34504834422190656	0.12300958791195253	-0.020043934102439605	0.4364988158577869	0.27450499988680477	-0.14084644283755296	0.3011449288996997	0.3884865897198447	-0.11803585824487713	0.2989756206450548	0.20526017684793754	-0.09845685071497802	0.36506382207225024	0.12204051406072942	-0.11257650702689083	0.3886822561859025	0.08983106122993903	-0.14144382722762328	0.2911318983988528	0.1077634470769668
177	3.0	0.26558599535526517	0.4209038712498773	0.7303033344611002	0.30104124011879607	0.44439403871879346	1.1160953678064738	0.30513710038810204	0.5380360375162919	1.494151209371777	0.27446698288561866	0.35325559134408907	1.507044571269986	0.3397260054989912	0.41661167491170165	1.532421704882113	0.2785002422150544	0.5901565420263457	1.5693073871947816	0.07703263452332604	0.4040450507306779	0.7515040675890469	0.07271067993694888	0.43354323569335135	1.1385093461334312	0.08789503861959135	0.5031676229240064	1.5130481163010052	0.10094367395107925	0.3806086943127824	1.546824085000026	0.05484291947342307	0.3736577927851648	1.513648215422158	0.0958284448287774	0.6039721292037316	1.5901225928939606	0.09946338899500431	0.42903738212455517	0.21085130074907932	0.1116440054662307	0.37815634927263864	-0.03122871415738558	0.1311804762673014	0.3162747493398169	0.10022312858108348	0.22915977786550898	0.470553676272776	0.24769973087639172	0.4084978868974227	0.40015907032360004	0.4050885255426458	0.40171058653989755	0.3625551850453871	0.22461722514218055	0.3825729985531841	0.334667621740387	0.1310285999701143	0.4413217245101193	0.3313430422083111	0.10745482544927873	0.4698858574226046	0.3483005874774448	0.15156039986365963	-0.019508624269813795	0.4361265362706803	0.2747100472517316	-0.14010237637932327	0.3011221191486033	0.39963515870303656	-0.12217420031409904	0.29808910172152664	0.21263730290204594	-0.10361949375239037	0.375949099416161	0.13719639152216284	-0.11733153292229939	0.372933690273457	0.10936578023522806	-0.14788245636690708	0.2871315055924553	0.11178340572880695
